<?xml version="1.0" encoding="UTF-8"?>
<svg id="eyes" xmlns="http://www.w3.org/2000/svg" version="1.1" viewBox="0 0 1024 1024">
  <!-- Generator: Adobe Illustrator 29.5.1, SVG Export Plug-In . SVG Version: 2.1.0 Build 141)  -->
  <defs>
    <style>
      .st0 {
        fill: #d8d8d8;
      }
    </style>
  </defs>
  <path class="st0" d="M311.48,355.09c44.26,0,80.15-35.88,80.15-80.15,0-19.37-6.87-37.13-18.3-50.98-.41-.49-.82-.98-1.24-1.47-2.1-2.42-4.34-4.72-6.71-6.88-1.9-1.72-3.88-3.36-5.94-4.9-1.03-.77-2.08-1.51-3.14-2.23-4.26-2.88-8.82-5.36-13.61-7.39-1.2-.51-2.41-.99-3.64-1.44-8.59-3.15-17.87-4.86-27.56-4.86s-18.96,1.72-27.56,4.86c-1.23.45-2.44.93-3.64,1.44-4.79,2.03-9.35,4.51-13.61,7.39-1.07.72-2.11,1.47-3.14,2.23-2.06,1.54-4.04,3.17-5.94,4.9-2.37,2.16-4.61,4.45-6.71,6.88-.42.48-.83.97-1.24,1.47-11.43,13.85-18.3,31.62-18.3,50.98,0,44.26,35.88,80.15,80.15,80.15Z"/>
  <path class="st0" d="M793.78,274.94c0-44.27-35.88-80.15-80.15-80.15s-80.15,35.88-80.15,80.15,35.88,80.15,80.15,80.15,80.15-35.88,80.15-80.15Z"/>
</svg>