<?xml version="1.0" encoding="UTF-8"?>
<svg id="Layer_7" data-name="Layer 7" xmlns="http://www.w3.org/2000/svg" viewBox="0 0 1024 1024">
  <defs>
    <style>
      .cls-1 {
        fill: #1a1a1a;
      }
    </style>
  </defs>
  <path class="cls-1" d="M495.12,865.22c-40.22,0-78.73-8.21-114.44-24.4-34.49-15.64-65.13-38.58-88.6-66.36-15.31-18.12-13.04-45.22,5.08-60.54,18.12-15.31,45.22-13.04,60.54,5.08,15.29,18.1,35.51,33.16,58.46,43.57,24.5,11.11,51.07,16.74,78.97,16.74,44.99,0,85.88-15.36,115.12-43.25,28.01-26.71,43.44-62.93,43.44-101.98s-15.43-75.26-43.44-101.98c-29.24-27.89-70.13-43.25-115.12-43.25h-104.1c-16.17,0-31.78-6.78-42.82-18.6-11.04-11.82-16.73-27.85-15.63-43.99l13.48-196.47c2.1-30.6,27.77-54.57,58.44-54.57h227.82c23.73,0,42.96,19.23,42.96,42.96s-19.23,42.96-42.96,42.96h-202.29l-9.73,141.8h74.82c67.18,0,129.12,23.79,174.42,66.99,45.18,43.08,70.06,101.38,70.06,164.15s-24.88,121.07-70.06,164.15c-45.3,43.2-107.24,66.99-174.42,66.99Z"/>
</svg>