<?xml version="1.0" encoding="UTF-8"?>
<svg id="Layer_1" data-name="Layer 1" xmlns="http://www.w3.org/2000/svg" viewBox="0 0 1024 1024">
  <defs>
    <style>
      .cls-1 {
        fill: #1a1a1a;
      }
    </style>
  </defs>
  <path class="cls-1" d="M257.47,473.95c-31.33-2.06-44.73-18.71-44.73-43.8,0-17.85,5.73-33.82,19.53-47.4,14.8-14.56,29.55-21.36,47.82-21.36,12.42,0,25.71,6.59,32.62,16.11,4.47,6.15,3.54,14.88-2.45,19.57-1.78,1.39-3.78,2.29-5.84,2.7-3.55.72-5.77,4.31-4.51,7.7,2.29,6.16,3.68,13.87,3.68,23.48,0,29.07-15.93,44.98-46.14,43Z"/>
  <path class="cls-1" d="M561.35,500.67c-17.87,0-39.18-7.53-39.18-43.41,0-24.41,5.6-44.57,12.36-57.86,5.62-11.07,14.17-16.29,21.84-16.29,6.58,0,14.29,3.19,25.15,10.21,20.36,13.14,40.04,35.94,40.04,58.48,0,13.24-7.34,26.24-20.14,35.68-11.37,8.38-25.97,13.19-40.07,13.19Z"/>
  <path class="cls-1" d="M556,753.94h-260.66c-25.81,0-36.56-6.97-45.37-14.11-3.59-2.92-3.97-3.22-6.71-3.22-22.57,0-33.91-14.78-45.92-30.44l-.85-1.11c-4.71-6.13-3.55-14.92,2.58-19.63,6.13-4.71,14.92-3.55,19.63,2.58l.86,1.12c11.92,15.54,15.8,19.48,23.7,19.48,12.67,0,19.42,5.48,24.35,9.48,4.98,4.04,9.68,7.86,27.72,7.86h260.66c12.35,0,15.28-2.26,18.38-4.65,3.54-2.74,8.9-6.87,18.36-6.87.24,0,.44,0,.59-.02.19-.2.41-.44.6-.64,3.17-3.44,9.08-9.84,22.37-9.84s15.81-2.6,20.01-7.33c5.14-5.78,13.99-6.3,19.77-1.16,5.78,5.14,6.3,13.99,1.16,19.76-9.42,10.6-19.14,16.73-40.94,16.73-.48,0-.83.02-1.07.05-.22.23-.5.53-.73.78-3.11,3.37-8.89,9.63-21.65,9.67-.38.27-.93.7-1.37,1.03-6.87,5.31-15.27,10.49-35.48,10.49ZM614.84,732.04h0,0ZM593.84,714.35h0,0Z"/>
</svg>