<?xml version="1.0" encoding="UTF-8"?>
<svg id="Layer_4" data-name="Layer 4" xmlns="http://www.w3.org/2000/svg" viewBox="0 0 1024 1024">
  <defs>
    <style>
      .cls-1 {
        fill: #ffbc00;
      }
    </style>
  </defs>
  <g>
    <rect class="cls-1" x="601.55" y="315.84" width="127.93" height="392.32" rx="17.06" ry="17.06"/>
    <path class="cls-1" d="M806.24,315.84h-34.11c-9.42,0-17.06,7.64-17.06,17.06v358.21c0,9.42,7.64,17.06,17.06,17.06h34.11c42.39,0,76.76-34.37,76.76-76.76v-238.8c0-42.39-34.37-76.76-76.76-76.76Z"/>
    <rect class="cls-1" x="448.03" y="315.84" width="127.93" height="392.32" rx="17.06" ry="17.06"/>
    <rect class="cls-1" x="294.52" y="315.84" width="127.93" height="392.32" rx="17.06" ry="17.06"/>
  </g>
  <path class="cls-1" d="M217.76,708.16h34.11c9.42,0,17.06-7.64,17.06-17.06v-358.21c0-9.42-7.64-17.06-17.06-17.06h-34.11c-42.39,0-76.76,34.37-76.76,76.76v238.8c0,42.39,34.37,76.76,76.76,76.76Z"/>
</svg>