<?xml version="1.0" encoding="UTF-8"?>
<svg id="shape" xmlns="http://www.w3.org/2000/svg" version="1.1" viewBox="0 0 1024 1024">
  <!-- Generator: Adobe Illustrator 29.5.1, SVG Export Plug-In . SVG Version: 2.1.0 Build 141)  -->
  <defs>
    <style>
      .st0 {
        fill: #8923b3;
      }

      .st1 {
        fill: #b30000;
      }
    </style>
  </defs>
  <path class="st1" d="M914.26,508.51h-.01c-28.75-4.04-59.81-7.65-92.3-10.75-94.13-8.97-201.71-13.71-311.11-13.71s-215.53,4.67-309.11,13.52c-32.38,3.06-63.31,6.63-91.91,10.6-14.36,1.99-25.2,14.43-25.2,28.93,0,8.45,3.66,16.48,10.03,22.02,6.37,5.54,14.82,8.05,23.21,6.9,27.56-3.82,57.5-7.27,88.99-10.24,91.96-8.68,197.07-13.27,303.99-13.27s213.47,4.66,305.96,13.46c31.47,3,61.54,6.49,89.39,10.39,1.34.19,2.69.28,4.04.28,7.04,0,13.84-2.55,19.15-7.17,6.38-5.55,10.04-13.58,10.04-22.04,0-14.46-10.8-26.9-25.13-28.92h-.03Z"/>
  <g>
    <path class="st0" d="M572.46,354.9c-17.24,0-29.75,15.21-29.75,36.17s11.68,33.06,29.75,33.06,29.75-12.98,29.75-33.06-12.51-36.17-29.75-36.17Z"/>
    <path class="st0" d="M451.88,354.9c-17.24,0-29.75,15.21-29.75,36.17s11.68,33.06,29.75,33.06,29.75-12.98,29.75-33.06-12.51-36.17-29.75-36.17Z"/>
  </g>
</svg>