<?xml version="1.0" encoding="UTF-8"?>
<svg id="Layer_1" xmlns="http://www.w3.org/2000/svg" version="1.1" viewBox="0 0 1024 1024">
  <!-- Generator: Adobe Illustrator 29.7.1, SVG Export Plug-In . SVG Version: 2.1.1 Build 8)  -->
  <defs>
    <style>
      .st0 {
        fill: #16232e;
      }
    </style>
  </defs>
  <g id="Layer_3">
    <path class="st0" d="M670.74,751.61c-62.55,0-115.98-29.43-154.51-85.11-1.46-2.11-2.87-4.21-4.23-6.31-1.36,2.1-2.77,4.21-4.23,6.31-38.53,55.68-91.96,85.11-154.51,85.11-45.9,0-83.95-16.55-110.04-47.87-25.34-30.42-38.19-72.95-38.19-126.42,0-19.33,15.67-35,35-35s35,15.67,35,35c0,36.14,7.6,64.36,21.97,81.61,12.71,15.25,31.11,22.67,56.26,22.67,38.54,0,70.79-17.97,95.87-53.4,20.38-28.79,28.53-58.7,28.93-60.23,3.83-15.66,17.81-26.68,33.93-26.68s30.1,11.02,33.93,26.68c.41,1.53,8.56,31.44,28.93,60.23,25.08,35.43,57.34,53.4,95.87,53.4,25.15,0,43.55-7.42,56.26-22.67,14.37-17.25,21.97-45.48,21.97-81.61,0-19.33,15.67-35,35-35s35,15.67,35,35c0,53.47-12.85,96-38.19,126.42-26.09,31.31-64.14,47.87-110.04,47.87h.02Z"/>
    <g>
      <circle class="st0" cx="340.5" cy="340.95" r="86.26"/>
      <circle class="st0" cx="683.5" cy="340.95" r="86.26"/>
    </g>
  </g>
</svg>