<?xml version="1.0" encoding="UTF-8"?>
<svg id="lips" xmlns="http://www.w3.org/2000/svg" version="1.1" viewBox="0 0 1024 1024">
  <!-- Generator: Adobe Illustrator 29.5.1, SVG Export Plug-In . SVG Version: 2.1.0 Build 141)  -->
  <defs>
    <style>
      .st0 {
        fill: #1a1a1a;
      }
    </style>
  </defs>
  <path class="st0" d="M893.68,576.67c.51,0,1.29.1,2.11.57,1.82,1.04,1.89,2.41,1.79,3.35-5.36,50.27-22.4,99.46-49.28,142.26l-7.7,12.27c-26.31,41.87-71.52,66.87-120.94,66.87h-415.27c-48.91,0-93.7-24.48-120.12-65.57l-.81-1.29-7.71-12.29c-26.88-42.8-43.92-92-49.28-142.28-.1-.93-.02-2.29,1.77-3.31.67-.38,1.39-.58,2.14-.58.6,0,1.49.13,2.33.75l32.36,24.02c51.22,38.01,114.54,58.94,178.31,58.94h337.32c63.77,0,127.09-20.93,178.31-58.94l32.35-24.01c.84-.62,1.73-.75,2.33-.75M893.68,550.67c-6.3,0-12.57,1.97-17.82,5.87l-32.36,24.02c-46.76,34.7-104.58,53.82-162.81,53.82h-337.32c-58.24,0-116.05-19.12-162.81-53.82l-32.36-24.02c-5.26-3.9-11.52-5.87-17.82-5.87-5.15,0-10.33,1.32-15.01,3.99-10.36,5.92-16.01,16.92-14.75,28.67,5.78,54.19,24.14,107.2,53.12,153.34l7.71,12.28v.02c31.09,49.47,84.53,79.02,142.95,79.02h415.27c58.43,0,111.86-29.55,142.95-79.04l7.71-12.28c28.97-46.12,47.33-99.14,53.11-153.32,1.26-11.77-4.39-22.77-14.75-28.68-4.67-2.67-9.85-3.99-15-3.99h0Z"/>
</svg>