<?xml version="1.0" encoding="UTF-8"?>
<svg id="teeth" xmlns="http://www.w3.org/2000/svg" version="1.1" viewBox="0 0 1024 1024">
  <!-- Generator: Adobe Illustrator 29.5.1, SVG Export Plug-In . SVG Version: 2.1.0 Build 141)  -->
  <defs>
    <style>
      .st0 {
        fill: #d8d8d8;
      }
    </style>
  </defs>
  <g>
    <path class="st0" d="M690.1,649.59v55.99c0,9.43,7.64,17.07,17.07,17.07h13.64c7.45,0,14.86-.59,22.16-1.72,8.47-1.31,14.84-8.44,14.84-17.01v-64.36c-22.09,5.93-44.81,9.3-67.71,10.04Z"/>
    <path class="st0" d="M622.39,722.65h33.58c9.43,0,17.07-7.64,17.07-17.07v-55.6h-67.71v55.6c0,9.43,7.64,17.07,17.07,17.07Z"/>
    <path class="st0" d="M537.62,722.65h33.58c9.43,0,17.07-7.64,17.07-17.07v-55.6h-67.71v55.6c0,9.43,7.64,17.07,17.07,17.07Z"/>
    <path class="st0" d="M730.01,754.71v57.02c24.14-1.72,46.92-9.38,66.72-22.07v-43.03c0-11.89-11.73-19.77-22.98-15.91-9.67,3.32-19.65,5.73-29.8,7.19-8.14,1.17-13.94,8.57-13.94,16.79Z"/>
    <path class="st0" d="M825.72,701.63c-6.53,5.34-11.93,13.16-11.93,27.3v47.95c10.33-9.06,19.58-19.51,27.13-31.55l7.71-12.27c13.34-21.23,24.24-54.04,32.51-77.77l-55.43,46.34Z"/>
    <path class="st0" d="M452.84,722.65h33.58c9.43,0,17.07-7.64,17.07-17.07v-55.6h-67.71v55.6c0,9.43,7.64,17.07,17.07,17.07Z"/>
    <path class="st0" d="M858.74,591.13c-3.85,2.86-7.9,5.43-11.88,8.09v44.23c0,7.24,8.45,11.19,14.01,6.55l28.97-24.22c3.7-14.86,6.52-29.94,8.14-45.15.22-2.02-.98-3.15-2.01-3.75-.77-.43-2.8-1.28-4.87.23l-32.36,14.02Z"/>
    <path class="st0" d="M163.18,649.86c5.56,4.63,13.99.67,13.99-6.56v-44.09c-3.98-2.66-8.03-5.23-11.88-8.08l-32.36-14.02c-2.07-1.53-4.09-.68-4.88-.23-1.03.6-2.22,1.73-2.01,3.73,1.62,15.2,4.43,30.27,8.14,45.12l28.99,24.13Z"/>
    <path class="st0" d="M695.87,739.72h-32.58c-9.43,0-17.07,7.64-17.07,17.07v55.6h66.71v-55.6c0-9.43-7.64-17.07-17.07-17.07Z"/>
    <path class="st0" d="M612.09,739.72h-32.58c-9.43,0-17.07,7.64-17.07,17.07v55.6h66.72v-55.6c0-9.43-7.64-17.07-17.07-17.07Z"/>
    <path class="st0" d="M444.52,739.72h-32.58c-9.43,0-17.07,7.64-17.07,17.07v55.6h66.71v-55.6c0-9.43-7.64-17.07-17.07-17.07Z"/>
    <path class="st0" d="M528.31,739.72h-32.58c-9.43,0-17.07,7.64-17.07,17.07v55.6h66.72v-55.6c0-9.43-7.64-17.07-17.07-17.07Z"/>
    <path class="st0" d="M829.79,660.01v-50.21c-17.46,10.03-35.81,18.46-54.91,24.81v57.13c0,9.68,10.48,16.13,18.89,11.34,7.38-4.2,14.41-9.05,20.99-14.55l2.78-2.33c7.76-6.49,12.24-16.08,12.24-26.19Z"/>
    <path class="st0" d="M266.21,703.87c0,8.57,6.37,15.68,14.83,17.01,7.43,1.17,14.98,1.77,22.56,1.77h13.25c9.43,0,17.07-7.64,17.07-17.07v-55.99c-22.9-.74-45.62-4.11-67.71-10.04v64.32Z"/>
    <path class="st0" d="M360.74,739.72h-32.58c-9.43,0-17.07,7.64-17.07,17.07v55.6h66.72v-55.6c0-9.43-7.64-17.07-17.07-17.07Z"/>
    <path class="st0" d="M368.06,722.65h33.58c9.43,0,17.07-7.64,17.07-17.07v-55.6h-67.71v55.6c0,9.43,7.64,17.07,17.07,17.07Z"/>
    <path class="st0" d="M294.02,811.73v-57.03c0-8.23-5.79-15.65-13.94-16.84-10.14-1.48-20.11-3.91-29.76-7.25-11.26-3.89-23.02,3.99-23.02,15.9v43.15c19.8,12.68,42.57,20.34,66.71,22.06Z"/>
    <path class="st0" d="M194.24,659.71c0,10.14,4.51,19.75,12.3,26.24l3.37,2.8c6.39,5.32,13.21,10.02,20.35,14.11,8.4,4.81,18.9-1.64,18.9-11.32v-56.92c-19.1-6.35-37.45-14.78-54.91-24.81v49.91Z"/>
  </g>
  <path class="st0" d="M198.29,701.63c6.53,5.34,11.93,23.16,11.93,37.3,0,10.29,0,37.95,0,37.95-10.33-9.06-19.58-19.51-27.13-31.55l-7.71-12.27c-13.34-21.23-24.24-54.04-32.51-77.77l55.43,46.34Z"/>
</svg>