<?xml version="1.0" encoding="UTF-8"?>
<svg id="Back_of_Mouth" xmlns="http://www.w3.org/2000/svg" version="1.1" viewBox="0 0 1024 1024">
  <!-- Generator: Adobe Illustrator 29.5.1, SVG Export Plug-In . SVG Version: 2.1.0 Build 141)  -->
  <defs>
    <style>
      .st0 {
        fill: #1a1a1a;
      }
    </style>
  </defs>
  <path class="st0" d="M899.01,571.59c-1.63-.93-3.47-1.42-5.33-1.42-2.27,0-4.41.7-6.21,2.04l-32.35,24.01c-50.1,37.18-112.05,57.66-174.44,57.66h-337.32c-62.38,0-124.33-20.48-174.43-57.66l-32.37-24.02c-1.79-1.33-3.93-2.03-6.19-2.03-1.86,0-3.72.5-5.36,1.43-3.62,2.07-5.45,5.58-5.01,9.64,5.46,51.25,22.84,101.41,50.24,145.05l8.56,13.64c27.61,42.92,74.56,68.55,125.59,68.55h415.27c51.67,0,98.94-26.13,126.45-69.91l7.7-12.27c27.4-43.63,44.78-93.78,50.24-145.03.43-4.08-1.4-7.61-5.03-9.68Z"/>
</svg>