<?xml version="1.0" encoding="UTF-8"?>
<svg id="Layer_12" xmlns="http://www.w3.org/2000/svg" version="1.1" viewBox="0 0 1024 1024">
  <!-- Generator: Adobe Illustrator 29.5.1, SVG Export Plug-In . SVG Version: 2.1.0 Build 141)  -->
  <defs>
    <style>
      .st0 {
        fill: #fff;
      }

      .st1 {
        fill: #1a1a1a;
      }
    </style>
  </defs>
  <g>
    <path class="st0" d="M654.47,455.37c-56.86,0-103.11-49.13-103.11-109.51s46.26-109.51,103.11-109.51,103.11,49.13,103.11,109.51-46.26,109.51-103.11,109.51Z"/>
    <path class="st1" d="M654.47,247.72c50.66,0,91.74,43.94,91.74,98.14s-41.07,98.14-91.74,98.14-91.74-43.94-91.74-98.14,41.07-98.14,91.74-98.14M654.47,224.97c-30.87,0-59.81,12.77-81.49,35.96-21.28,22.77-33,52.93-33,84.93s11.72,62.17,33,84.93c21.68,23.19,50.62,35.96,81.49,35.96s59.81-12.77,81.49-35.96c21.28-22.77,33-52.93,33-84.93s-11.72-62.17-33-84.93c-21.68-23.19-50.62-35.96-81.49-35.96h0Z"/>
  </g>
  <g>
    <path class="st0" d="M369.57,455.37c-56.86,0-103.11-49.13-103.11-109.51s46.26-109.51,103.11-109.51,103.11,49.13,103.11,109.51-46.26,109.51-103.11,109.51Z"/>
    <path class="st1" d="M369.57,247.72c50.66,0,91.74,43.94,91.74,98.14s-41.07,98.14-91.74,98.14-91.74-43.94-91.74-98.14,41.07-98.14,91.74-98.14M369.57,224.97c-30.87,0-59.81,12.77-81.49,35.96-21.28,22.77-33,52.93-33,84.93s11.72,62.17,33,84.93c21.68,23.19,50.62,35.96,81.49,35.96s59.81-12.77,81.49-35.96c21.28-22.77,33-52.93,33-84.93s-11.72-62.17-33-84.93c-21.68-23.19-50.62-35.96-81.49-35.96h0Z"/>
  </g>
</svg>