<?xml version="1.0" encoding="UTF-8"?>
<svg xmlns="http://www.w3.org/2000/svg" version="1.1" viewBox="0 0 1024 1024">
  <!-- Generator: Adobe Illustrator 29.5.1, SVG Export Plug-In . SVG Version: 2.1.0 Build 141)  -->
  <defs>
    <style>
      .st0 {
        fill: #e3e3e3;
      }

      .st1 {
        fill: #ffa4b8;
      }

      .st2 {
        fill: #00d0ff;
      }

      .st3 {
        display: none;
      }

      .st4 {
        fill: #ff8ca5;
      }
    </style>
  </defs>
  <g id="Layer_1" class="st3">
    <g>
      <path class="st2" d="M806.4,708.27h-34.13c-9.43,0-17.07-7.64-17.07-17.07v-358.4c0-9.43,7.64-17.07,17.07-17.07h34.13c42.42,0,76.8,34.38,76.8,76.8v238.93c0,42.42-34.38,76.8-76.8,76.8h0Z"/>
      <path class="st2" d="M217.6,708.27h34.13c9.43,0,17.07-7.64,17.07-17.07v-358.4c0-9.43-7.64-17.07-17.07-17.07h-34.13c-42.42,0-76.8,34.38-76.8,76.8v238.93c0,42.42,34.38,76.8,76.8,76.8h0Z"/>
    </g>
    <rect class="st1" x="601.6" y="315.73" width="128" height="392.53" rx="17.07" ry="17.07"/>
    <g>
      <rect class="st0" x="448" y="315.73" width="128" height="392.53" rx="17.07" ry="17.07"/>
      <rect class="st1" x="294.4" y="315.73" width="128" height="392.53" rx="17.07" ry="17.07"/>
    </g>
  </g>
  <g id="Layer_2">
    <path class="st4" d="M806.4,315.73H217.6c-42.42,0-76.8,34.38-76.8,76.8v238.93c0,42.42,34.38,76.8,76.8,76.8h0s588.8.01,588.8.01h0c42.42-.01,76.8-34.39,76.8-76.81v-238.93c0-42.42-34.38-76.8-76.8-76.8Z"/>
  </g>
</svg>