<?xml version="1.0" encoding="UTF-8"?>
<svg id="Layer_1" data-name="Layer 1" xmlns="http://www.w3.org/2000/svg" viewBox="0 0 1024 1024">
  <defs>
    <style>
      .cls-1 {
        fill: #e3e3e3;
      }

      .cls-2 {
        fill: #ffa4b8;
      }

      .cls-3 {
        fill: #00d0ff;
      }
    </style>
  </defs>
  <g>
    <path class="cls-3" d="M806.4,708.27h-34.13c-9.43,0-17.07-7.64-17.07-17.07v-358.4c0-9.43,7.64-17.07,17.07-17.07h34.13c42.42,0,76.8,34.38,76.8,76.8v238.93c0,42.42-34.38,76.8-76.8,76.8Z"/>
    <path class="cls-3" d="M217.6,708.27h34.13c9.43,0,17.07-7.64,17.07-17.07v-358.4c0-9.43-7.64-17.07-17.07-17.07h-34.13c-42.42,0-76.8,34.38-76.8,76.8v238.93c0,42.42,34.38,76.8,76.8,76.8Z"/>
  </g>
  <rect class="cls-2" x="601.6" y="315.73" width="128" height="392.53" rx="17.07" ry="17.07"/>
  <g>
    <rect class="cls-1" x="448" y="315.73" width="128" height="392.53" rx="17.07" ry="17.07"/>
    <rect class="cls-2" x="294.4" y="315.73" width="128" height="392.53" rx="17.07" ry="17.07"/>
  </g>
</svg>