<?xml version="1.0" encoding="UTF-8"?>
<svg id="Layer_7" xmlns="http://www.w3.org/2000/svg" version="1.1" viewBox="0 0 1024 1024">
  <!-- Generator: Adobe Illustrator 29.5.1, SVG Export Plug-In . SVG Version: 2.1.0 Build 141)  -->
  <defs>
    <style>
      .st0 {
        fill: #fabd05;
      }
    </style>
  </defs>
  <path class="st0" d="M831.89,351.01h0c-56.54-110.98-171.97-186.94-305.14-186.61-179.04.44-330.4,143.78-339.97,322.56-10.55,197.03,146.1,360.1,340.83,360.1,92.04,0,175.55-36.44,236.94-95.66,7.36-7.1,4.15-19.53-5.8-21.89l-397.18-94.31c-7.7-1.83-8.98-12.25-1.94-15.88l463.2-239.23c10.59-5.47,14.46-18.46,9.06-29.08ZM404.22,491.9c-28.44,0-51.5-23.06-51.5-51.5s23.06-51.5,51.5-51.5,51.5,23.06,51.5,51.5-23.06,51.5-51.5,51.5ZM607.94,386.75c-28.45,0-51.5-23.06-51.5-51.5s23.06-51.5,51.5-51.5,51.5,23.06,51.5,51.5-23.05,51.5-51.5,51.5Z"/>
</svg>