<?xml version="1.0" encoding="UTF-8"?>
<svg id="Layer_8" xmlns="http://www.w3.org/2000/svg" xmlns:xlink="http://www.w3.org/1999/xlink" version="1.1" viewBox="0 0 1024 1024">
  <!-- Generator: Adobe Illustrator 29.5.1, SVG Export Plug-In . SVG Version: 2.1.0 Build 141)  -->
  <defs>
    <style>
      .st0 {
        fill: url(#linear-gradient);
      }
    </style>
    <linearGradient id="linear-gradient" x1="526.1" y1="119.43" x2="526.1" y2="899.12" gradientUnits="userSpaceOnUse">
      <stop offset="0" stop-color="#f2f2f2"/>
      <stop offset="1" stop-color="#ccc"/>
    </linearGradient>
  </defs>
  <path class="st0" d="M820.21,288.74c-53.33-103.16-162.38-172.84-287.34-169.18-167,4.9-303.33,153.16-303.32,320.23v453.86c0,4.89,6.03,7.2,9.3,3.57l69.01-76.51c6.78-7.52,18.58-7.52,25.37,0l65.63,72.76c6.78,7.52,18.58,7.52,25.37,0l65.63-72.76c6.78-7.52,18.58-7.52,25.37,0l65.63,72.76c6.78,7.52,18.58,7.52,25.37,0l65.63-72.76c6.78-7.52,18.58-7.52,25.37,0l68.94,76.43c3.28,3.64,9.32,1.3,9.3-3.6l-1.23-238.21c-.04-7.88-5.46-14.67-13.13-16.49l-369.04-87.63c-7.71-1.83-8.99-12.26-1.95-15.9l421.04-217.45c10.6-5.47,14.56-18.53,9.08-29.13ZM615.85,228.77c26.06,0,47.18,21.12,47.18,47.18s-21.12,47.18-47.18,47.18-47.18-21.12-47.18-47.18,21.12-47.18,47.18-47.18ZM429.2,325.1c26.06,0,47.18,21.12,47.18,47.18s-21.12,47.18-47.18,47.18-47.18-21.12-47.18-47.18,21.12-47.18,47.18-47.18Z"/>
</svg>