<?xml version="1.0" encoding="UTF-8"?>
<svg id="shape" xmlns="http://www.w3.org/2000/svg" xmlns:xlink="http://www.w3.org/1999/xlink" version="1.1" viewBox="0 0 1024 1024">
  <!-- Generator: Adobe Illustrator 29.7.1, SVG Export Plug-In . SVG Version: 2.1.1 Build 8)  -->
  <defs>
    <style>
      .st0 {
        fill: url(#linear-gradient);
      }
    </style>
    <linearGradient id="linear-gradient" x1="512.1" y1="1024" x2="512.1" y2="8.14" gradientUnits="userSpaceOnUse">
      <stop offset=".1" stop-color="#fccb05"/>
      <stop offset=".19" stop-color="#f3ca07"/>
      <stop offset=".33" stop-color="#dac90f"/>
      <stop offset=".45" stop-color="#c3c817"/>
      <stop offset=".7" stop-color="#77c52e"/>
    </linearGradient>
  </defs>
  <path class="st0" d="M825.35,8.33c-11.13-.12-28.53-.19-30.5-.19-54.53,0-99.18,15.31-151.02,59.73-39.9,34.18-81.54,52.56-131.73,52.57-50.19,0-91.84-18.39-131.73-52.57-51.84-44.42-96.49-59.73-151.02-59.73-1.97,0-19.37.07-30.5.19C87.69,9.51.2,97.95.2,209.11H.2v814.89h1023.8V209.11h0c0-111.16-87.49-199.6-198.65-200.78ZM581.21,344.19c13.76,0,22.04,13.15,22.04,29.38s-8.28,25.82-22.04,25.82-22.04-9.59-22.04-25.82,8.28-29.38,22.04-29.38ZM442.99,344.19c13.76,0,22.04,13.15,22.04,29.38s-8.28,25.82-22.04,25.82-22.04-9.59-22.04-25.82,8.28-29.38,22.04-29.38ZM936.46,555.66c-23.58-2.97-48.35-5.69-74.17-8.15-105.86-10.08-227.82-15.43-350.16-15.47h0s-.02,0-.03,0-.02,0-.03,0h0c-122.34.04-244.3,5.4-350.16,15.47-25.82,2.46-50.59,5.18-74.17,8.15-11.9,1.5-22.39-7.8-22.36-19.79v-.16c.03-10,7.48-18.42,17.4-19.68,24.19-3.05,49.58-5.85,76.03-8.37,106.88-10.18,229.02-15.58,353.28-15.62,124.26.04,246.4,5.44,353.28,15.62,26.45,2.52,51.85,5.32,76.03,8.37,9.92,1.25,17.37,9.67,17.4,19.68v.16c.04,11.99-10.46,21.29-22.36,19.79Z"/>
</svg>