<?xml version="1.0" encoding="UTF-8"?>
<svg id="Layer_3" xmlns="http://www.w3.org/2000/svg" xmlns:xlink="http://www.w3.org/1999/xlink" version="1.1" viewBox="0 0 1024 1024">
  <!-- Generator: Adobe Illustrator 29.7.1, SVG Export Plug-In . SVG Version: 2.1.1 Build 8)  -->
  <defs>
    <style>
      .st0 {
        fill: url(#linear-gradient);
      }
    </style>
    <linearGradient id="linear-gradient" x1="512" y1="1078" x2="512" y2="62.14" gradientTransform="translate(0 -54)" gradientUnits="userSpaceOnUse">
      <stop offset=".1" stop-color="#ff67b8"/>
      <stop offset=".21" stop-color="#f661ba"/>
      <stop offset=".38" stop-color="#dd51c1"/>
      <stop offset=".6" stop-color="#b637cc"/>
      <stop offset=".7" stop-color="#a129d2"/>
    </linearGradient>
  </defs>
  <path class="st0" d="M794.8,8.14c-54.54,0-99.2,15.31-151.05,59.73-39.91,34.18-81.56,52.56-131.76,52.57-50.2,0-91.86-18.39-131.76-52.57-51.85-44.42-96.51-59.73-151.05-59.73C102.88,8.14,0,97.95,0,209.11h0v814.89h1024V209.11h0c0-111.16-103.69-200.97-229.2-200.97ZM581.12,344.19c13.76,0,22.04,13.15,22.04,29.38s-8.28,25.82-22.04,25.82-22.04-9.59-22.04-25.82,8.28-29.38,22.04-29.38ZM442.88,344.19c13.76,0,22.04,13.15,22.04,29.38s-8.28,25.82-22.04,25.82-22.04-9.59-22.04-25.82,8.28-29.38,22.04-29.38ZM936.44,555.66c-23.58-2.97-48.36-5.69-74.18-8.15-105.88-10.08-227.86-15.43-350.23-15.47h-.06c-122.36.04-244.35,5.4-350.23,15.47-25.83,2.46-50.6,5.18-74.18,8.15-11.9,1.5-22.39-7.8-22.36-19.79v-.16c.03-10,7.48-18.42,17.4-19.68,24.19-3.05,49.59-5.85,76.04-8.37,106.9-10.18,229.06-15.58,353.35-15.62,124.28.04,246.45,5.44,353.35,15.62,26.46,2.52,51.86,5.32,76.04,8.37,9.92,1.25,17.37,9.67,17.4,19.68v.16c.04,11.99-10.46,21.29-22.36,19.79h.02,0Z"/>
</svg>