<?xml version="1.0" encoding="UTF-8"?>
<svg id="shape" xmlns="http://www.w3.org/2000/svg" xmlns:xlink="http://www.w3.org/1999/xlink" version="1.1" viewBox="0 0 1024 1024">
  <!-- Generator: Adobe Illustrator 29.5.1, SVG Export Plug-In . SVG Version: 2.1.0 Build 141)  -->
  <defs>
    <style>
      .st0 {
        fill: url(#linear-gradient);
      }
    </style>
    <linearGradient id="linear-gradient" x1="512.01" y1="600" x2="512.01" y2="-296" gradientTransform="translate(0 360)" gradientUnits="userSpaceOnUse">
      <stop offset=".1" stop-color="#ff67b8"/>
      <stop offset=".21" stop-color="#f661ba"/>
      <stop offset=".38" stop-color="#dd51c1"/>
      <stop offset=".6" stop-color="#b637cc"/>
      <stop offset=".7" stop-color="#a129d2"/>
    </linearGradient>
  </defs>
  <path class="st0" d="M960,262.83c0-109.81-89.02-198.83-198.83-198.83h-.03c-62.47,0-103.29,27.76-133.97,54.05-34.86,29.87-66.59,46.65-115.11,46.65h-.11c-48.52,0-80.25-16.77-115.11-46.65-30.68-26.29-71.51-54.05-133.97-54.05-109.8,0-198.82,89.01-198.83,198.81l-.03,469.96v28.4c0,109.81,89.02,198.83,198.83,198.83h498.34c109.81,0,198.83-89.02,198.83-198.83v-498.34h0ZM572.46,365.4c12.02,0,19.25,11.49,19.25,25.67s-7.23,22.56-19.25,22.56-19.25-8.38-19.25-22.56,7.23-25.67,19.25-25.67ZM451.88,365.4c12.02,0,19.25,11.49,19.25,25.67s-7.23,22.56-19.25,22.56-19.25-8.38-19.25-22.56,7.23-25.67,19.25-25.67ZM907.96,553.48c-27.91-3.91-58.01-7.42-89.95-10.46-92.85-8.84-199.88-13.52-307.19-13.52s-212.85,4.61-305.21,13.33c-31.76,3-61.73,6.45-89.55,10.31-9.75,1.36-18.45-6.2-18.45-16.04,0-8.09,5.97-14.94,13.98-16.05,28.43-3.95,59-7.48,91.35-10.54,93.23-8.81,198.9-13.46,307.89-13.46s216.15,4.72,309.88,13.65c32.53,3.1,63.23,6.68,91.73,10.68,8,1.13,13.95,7.97,13.95,16.05,0,9.84-8.69,17.41-18.43,16.05Z"/>
</svg>