<?xml version="1.0" encoding="UTF-8" standalone="yes"?><svg xmlns:inkscape="http://www.inkscape.org/namespaces/inkscape" xmlns:sodipodi="http://sodipodi.sourceforge.net/DTD/sodipodi-0.dtd" xmlns="http://www.w3.org/2000/svg" xmlns:svg="http://www.w3.org/2000/svg" xmlns:rdf="http://www.w3.org/1999/02/22-rdf-syntax-ns#" xmlns:cc="http://creativecommons.org/ns#" xmlns:dc="http://purl.org/dc/elements/1.1/" visibility="visible" style="zoom: 1;" inkscape:export-xdpi="18" id="svg5" sodipodi:docname="bat.svg" inkscape:export-ydpi="18" inkscape:export-filename="reshot-icon-bat-C8AP4HZDFG.png" inkscape:version="1.3 (0e150ed6c4, 2023-07-21)" version="1.1" viewBox="0 0 128 128"><defs id="defs5"></defs><sodipodi:namedview id="namedview5" pagecolor="#505050" bordercolor="#ffffff" borderopacity="1" inkscape:showpageshadow="0" inkscape:pageopacity="0" inkscape:pagecheckerboard="1" inkscape:deskcolor="#505050" showgrid="false" inkscape:zoom="9.2265625" inkscape:cx="63.945809" inkscape:cy="64" inkscape:window-width="2560" inkscape:window-height="1377" inkscape:window-x="-8" inkscape:window-y="-8" inkscape:window-maximized="1" inkscape:current-layer="svg5"></sodipodi:namedview><title id="title1">BAT</title><g id="g5"><path d="M48.928,74.533 S30.883,57.368 43.869,31.1 A45.641,45.641 0 0 0 6.307,9.729 s13.064,17.861 0,36.893 c0,0 19.106,9.94 11.824,35.073 c0,0 17.18,1.5 17.24,18.847 c0,0 12.33,-6.349 20.088,5.948 H72.541 c7.758,-12.3 20.088,-5.948 20.088,-5.948 c.06,-17.347 17.24,-18.847 17.24,-18.847 c-7.282,-25.133 11.824,-35.073 11.824,-35.073 c-13.064,-19.032 0,-36.893 0,-36.893 A45.641,45.641 0 0 0 84.131,31.1 c12.986,26.264 -5.059,43.429 -5.059,43.429 " id="path1" fill="#8b8089"></path><path d="M64,60.678 a13.307,13.307 0 0 1 7.528,2.45 a40.765,40.765 0 0 1 5.448,-11.671 C85.784,101.726 64,118.271 64,118.271 S42.216,101.726 51.024,51.457 a40.765,40.765 0 0 1 5.448,11.671 A13.307,13.307 0 0 1 64,60.678 " id="path2" fill="#9b8e99"></path><g id="g4"><path d="M123.44,46.651 c0,-.01 0,-.019 0,-.028 a1.769,1.769 0 0 0 -.018,-.18 c0,-.05 -.006,-.1 -.015,-.15 a1.835,1.835 0 0 0 -.074,-.253 c-.01,-.029 -.015,-.059 -.027,-.088 a1.728,1.728 0 0 0 -.17,-.314 l0,-.006 c-12.181,-17.746 -.531,-34.182 -.031,-34.87 a1.751,1.751 0 0 0 .136,-1.85 a1.733,1.733 0 0 0 -1.6,-.932 a49.088,49.088 0 0 0 -13.219,2.21 a1.75,1.75 0 0 0 1.053,3.338 A44.9,44.9 0 0 1 118.5,11.69 c-3.017,5.768 -8.04,19.105 .125,33.329 A52.085,52.085 0 0 0 101.378,49.9 a1.75,1.75 0 1 0 1.593,3.117 A50.594,50.594 0 0 1 115.832,48.9 c-4.875,4.62 -11.191,13.605 -8.848,27.963 A23.682,23.682 0 0 0 98.1,73 a1.75,1.75 0 1 0 -.553,3.456 a20.8,20.8 0 0 1 8.684,4.225 c-4.69,1.33 -12.683,5 -14.811,14.775 a22.558,22.558 0 0 0 -5.458,-5.163 a1.75,1.75 0 0 0 -1.816,2.991 A19.688,19.688 0 0 1 88.488,97.4 a16.467,16.467 0 0 0 -11.174,1.9 a82.474,82.474 0 0 0 3.509,-24.055 a37.56,37.56 0 0 0 7.283,-11.952 c2.7,-7.087 4.506,-18.354 -1.986,-32.093 a40.351,40.351 0 0 1 4.529,-5.743 a1.75,1.75 0 0 0 -2.552,-2.4 a39.454,39.454 0 0 0 -5.5,7.2 a1.751,1.751 0 0 0 -.036,1.619 c9.084,18.373 2.472,31.907 -1.821,37.934 A138.875,138.875 0 0 0 78.7,51.154 a1.75,1.75 0 0 0 -3.157,-.7 a44.2,44.2 0 0 0 -5.057,10.026 a14.345,14.345 0 0 0 -12.972,0 a44.2,44.2 0 0 0 -5.057,-10.026 a1.75,1.75 0 0 0 -3.157,.7 a138.875,138.875 0 0 0 -2.041,18.659 c-4.293,-6.027 -10.9,-19.561 -1.821,-37.934 A1.751,1.751 0 0 0 45.4,30.26 A46.987,46.987 0 0 0 6.363,7.98 a1.749,1.749 0 0 0 -1.468,2.782 c.123,.168 12.19,17.066 -.031,34.87 l0,.006 a1.737,1.737 0 0 0 -.17,.315 c-.011,.027 -.016,.057 -.026,.085 a1.7,1.7 0 0 0 -.075,.255 c-.009,.049 -.009,.1 -.015,.149 a1.789,1.789 0 0 0 -.018,.181 c0,.009 0,.018 0,.028 c0,.051 .01,.1 .015,.15 a1.9,1.9 0 0 0 .03,.214 c0,.01 0,.021 0,.031 c.009,.034 .026,.065 .036,.1 a1.808,1.808 0 0 0 .077,.21 c.02,.043 .045,.084 .068,.125 a1.7,1.7 0 0 0 .111,.177 c.03,.04 .063,.078 .1,.116 a1.744,1.744 0 0 0 .141,.144 c.037,.034 .076,.065 .116,.1 a1.894,1.894 0 0 0 .175,.116 c.024,.014 .045,.034 .071,.047 a25.8,25.8 0 0 1 11,13.4 a1.75,1.75 0 1 0 3.3,-1.175 a29.3,29.3 0 0 0 -7.53,-11.474 A51.007,51.007 0 0 1 25.03,53.015 A1.75,1.75 0 0 0 26.622,49.9 A52.1,52.1 0 0 0 9.376,45.019 c8.162,-14.222 3.143,-27.56 .126,-33.328 A44.417,44.417 0 0 1 41.878,31.2 c-11.332,23.983 2.34,40.8 5.3,44.028 A82.486,82.486 0 0 0 50.686,99.3 a16.467,16.467 0 0 0 -11.174,-1.9 a19.688,19.688 0 0 1 4.343,-4.118 a1.75,1.75 0 0 0 -1.816,-2.991 a22.558,22.558 0 0 0 -5.458,5.163 c-2.127,-9.772 -10.117,-13.443 -14.808,-14.774 a21.136,21.136 0 0 1 8.686,-4.227 A1.75,1.75 0 0 0 29.9,73 A23.693,23.693 0 0 0 21,76.876 a37.5,37.5 0 0 0 .526,-6.758 A1.73,1.73 0 0 0 19.746,68.4 a1.751,1.751 0 0 0 -1.716,1.783 a37.216,37.216 0 0 1 -1.58,11.023 c-.008,.029 -.008,.059 -.015,.088 a1.814,1.814 0 0 0 -.04,.232 c0,.046 -.006,.091 -.007,.137 a1.8,1.8 0 0 0 .012,.232 c.005,.042 .01,.083 .018,.125 a1.758,1.758 0 0 0 .068,.246 c.012,.033 .021,.067 .034,.1 a1.75,1.75 0 0 0 .138,.26 c.011,.018 .017,.037 .029,.054 l.01,.011 a1.748,1.748 0 0 0 .229,.268 l.015,.016 l.011,.012 a1.721,1.721 0 0 0 .29,.212 c.01,.006 .022,.01 .033,.016 a1.719,1.719 0 0 0 .291,.131 c.032,.011 .065,.018 .1,.027 a1.629,1.629 0 0 0 .248,.051 c.021,0 .041,.011 .063,.013 c.636,.058 15.592,1.609 15.646,17.11 c0,.022 .008,.043 .009,.066 a1.667,1.667 0 0 0 .041,.306 c.007,.034 .011,.069 .021,.1 a1.756,1.756 0 0 0 .15,.368 c.011,.02 .026,.037 .038,.056 a1.738,1.738 0 0 0 .2,.269 c.028,.03 .057,.058 .087,.086 a1.734,1.734 0 0 0 .231,.185 c.023,.016 .04,.037 .064,.052 s.029,.011 .043,.018 s.034,.026 .054,.036 a1.593,1.593 0 0 0 .174,.066 a1.775,1.775 0 0 0 .184,.069 a1.624,1.624 0 0 0 .248,.041 a1.686,1.686 0 0 0 .174,.021 c.01,0 .02,0 .031,0 c.051,0 .1,-.015 .151,-.02 a1.663,1.663 0 0 0 .272,-.037 a1.538,1.538 0 0 0 .193,-.07 a1.715,1.715 0 0 0 .186,-.067 c.441,-.226 10.745,-5.362 17.573,4.977 c4.141,8.6 8.779,12.273 9.2,12.59 a1.753,1.753 0 0 0 2.118,0 c.417,-.317 5.055,-3.994 9.2,-12.589 c6.792,-10.28 17.136,-5.2 17.573,-4.978 a1.7,1.7 0 0 0 .181,.065 a1.786,1.786 0 0 0 .2,.073 a1.732,1.732 0 0 0 .249,.033 a1.633,1.633 0 0 0 .171,.023 c.012,0 .024,0 .036,0 c.049,0 .1,-.012 .144,-.017 a1.769,1.769 0 0 0 .278,-.045 a1.724,1.724 0 0 0 .169,-.064 a1.782,1.782 0 0 0 .184,-.07 c.02,-.01 .035,-.025 .055,-.036 s.028,-.01 .042,-.018 s.041,-.036 .064,-.052 a1.734,1.734 0 0 0 .231,-.185 c.03,-.028 .059,-.056 .087,-.086 a1.721,1.721 0 0 0 .2,-.269 c.012,-.019 .027,-.036 .038,-.056 a1.756,1.756 0 0 0 .15,-.368 c.01,-.033 .014,-.068 .021,-.1 a1.666,1.666 0 0 0 .041,-.307 c0,-.022 .009,-.043 .009,-.065 c.054,-15.5 15.01,-17.052 15.642,-17.11 c.022,0 .042,-.01 .063,-.012 a1.82,1.82 0 0 0 .242,-.049 c.037,-.01 .074,-.018 .111,-.031 a1.761,1.761 0 0 0 .252,-.112 c.024,-.013 .05,-.022 .074,-.036 a1.787,1.787 0 0 0 .285,-.21 l0,-.006 c.02,-.018 .036,-.041 .055,-.061 a1.661,1.661 0 0 0 .191,-.222 l.013,-.015 c.017,-.025 .027,-.053 .042,-.078 a1.683,1.683 0 0 0 .122,-.229 c.018,-.041 .03,-.083 .044,-.125 a1.9,1.9 0 0 0 .061,-.221 c.009,-.047 .015,-.094 .02,-.142 a1.791,1.791 0 0 0 .011,-.22 c0,-.047 0,-.095 -.007,-.143 a1.846,1.846 0 0 0 -.04,-.23 c-.007,-.029 -.007,-.059 -.015,-.088 c-6.777,-23.389 10.227,-32.652 10.95,-33.033 c.026,-.013 .047,-.033 .071,-.047 a1.894,1.894 0 0 0 .175,-.116 c.04,-.031 .079,-.062 .116,-.1 a1.744,1.744 0 0 0 .141,-.144 c.033,-.038 .066,-.076 .1,-.117 a1.563,1.563 0 0 0 .11,-.175 c.024,-.042 .049,-.082 .069,-.126 a1.711,1.711 0 0 0 .076,-.207 c.011,-.034 .028,-.065 .037,-.1 c0,-.011 0,-.022 0,-.033 a1.816,1.816 0 0 0 .03,-.211 C123.43,46.752 123.439,46.7 123.44,46.651 M63.994,115.905 c-3.991,-3.979 -17.532,-20.656 -12,-59.394 a32.92,32.92 0 0 1 2.783,7.04 a1.754,1.754 0 0 0 2.77,.961 a11.043,11.043 0 0 1 12.906,0 a1.75,1.75 0 0 0 2.776,-.956 a32.979,32.979 0 0 1 2.783,-7.035 C81.505,95.11 67.961,111.907 63.994,115.905 " id="path3"></path><path d="M96.373,19.888 a1.74,1.74 0 0 0 1.013,-.324 c1.154,-.822 2.356,-1.594 3.574,-2.3 a1.75,1.75 0 0 0 -1.746,-3.034 c-1.316,.758 -2.614,1.591 -3.858,2.478 a1.75,1.75 0 0 0 1.017,3.175 " id="path4"></path></g></g><metadata id="metadata5"><rdf:RDF><cc:Work rdf:about=""><dc:title>BAT</dc:title></cc:Work></rdf:RDF></metadata></svg>