<?xml version="1.0" encoding="UTF-8" standalone="no"?>
<svg
   viewBox="0 0 64 64"
   version="1.1"
   id="svg18"
   sodipodi:docname="ghost facing right.svg"
   inkscape:export-filename="reshot-icon-ghost-WV9UDSQTY2.png"
   inkscape:export-xdpi="36"
   inkscape:export-ydpi="36"
   inkscape:version="1.3 (0e150ed6c4, 2023-07-21)"
   xmlns:inkscape="http://www.inkscape.org/namespaces/inkscape"
   xmlns:sodipodi="http://sodipodi.sourceforge.net/DTD/sodipodi-0.dtd"
   xmlns="http://www.w3.org/2000/svg"
   xmlns:svg="http://www.w3.org/2000/svg"
   xmlns:rdf="http://www.w3.org/1999/02/22-rdf-syntax-ns#"
   xmlns:cc="http://creativecommons.org/ns#"
   xmlns:dc="http://purl.org/dc/elements/1.1/">
  <sodipodi:namedview
     id="namedview18"
     pagecolor="#505050"
     bordercolor="#ffffff"
     borderopacity="1"
     inkscape:showpageshadow="0"
     inkscape:pageopacity="0"
     inkscape:pagecheckerboard="1"
     inkscape:deskcolor="#505050"
     inkscape:zoom="18.453125"
     inkscape:cx="31.972904"
     inkscape:cy="32"
     inkscape:window-width="2560"
     inkscape:window-height="1377"
     inkscape:window-x="-8"
     inkscape:window-y="-8"
     inkscape:window-maximized="1"
     inkscape:current-layer="svg18" />
  <defs
     id="defs1">
    <style
       id="style1">.cls-1{isolation:isolate;}.cls-2{fill:#d3d3d3;}.cls-10,.cls-3{fill:#fff;}.cls-4,.cls-5,.cls-6,.cls-7,.cls-8{fill:none;}.cls-5,.cls-6,.cls-7,.cls-8{stroke:#000;}.cls-5,.cls-6,.cls-8{stroke-miterlimit:10;}.cls-5,.cls-7{stroke-width:2px;}.cls-7,.cls-8{stroke-linecap:round;}.cls-7{stroke-linejoin:round;}.cls-8{stroke-width:3px;}.cls-9{opacity:0.25;mix-blend-mode:multiply;}.cls-10{mix-blend-mode:overlay;}</style>
  </defs>
  <title
     id="title1">Icon Color</title>
  <g
     class="cls-1"
     id="g18"
     transform="matrix(-1,0,0,1,63.921451,0)">
    <g
       id="Layer_1"
       data-name="Layer 1">
      <g
         id="Vector">
        <path
           class="cls-2"
           d="m 12.88,46.37 c -1.92,-0.91 -2,-3.56 -2,-3.56 0,-0.7 0,-1.35 0,-1.93 0,-0.58 0,-1.11 0,-1.55 0,-0.44 0,-0.73 0,-1.08 a 1.61,1.61 0 0 0 -0.62,1 3.17,3.17 0 0 1 -0.41,1 A 3,3 0 0 1 4.43,37.88 7.2,7.2 0 0 1 10,32.31 v 0 a 6.63,6.63 0 0 1 2,0 c 0,1.07 -0.07,2.08 -0.1,3 a 54,54 0 0 0 0,6.37 7,7 0 0 0 0.3,1.64 22.26,22.26 0 0 0 0.68,3.05 z"
           id="path1" />
        <path
           class="cls-2"
           d="m 59.38,49.57 a 16.82,16.82 0 0 1 -6.72,6.6 l 0.06,-0.21 c 0.27,-1.22 -1.12,-2 -2.39,-6 a 22.88,22.88 0 0 1 -0.63,-2.46 22.51,22.51 0 0 0 8.17,-0.09 1.44,1.44 0 0 1 1.51,2.16 z"
           id="path2" />
        <path
           class="cls-3"
           d="m 52.72,56 -0.06,0.21 C 50.9,61 25.4,65.41 15.88,52.8 a 17.87,17.87 0 0 1 -3,-6.43 22.26,22.26 0 0 1 -0.53,-3.11 7,7 0 0 1 -0.3,-1.64 54,54 0 0 1 0,-6.37 c 0,-0.94 0.07,-2 0.1,-3 0.11,-3.15 0.23,-6.81 0.23,-10.82 a 18.43,18.43 0 0 1 36.86,0 V 43.26 A 25.05,25.05 0 0 0 50.33,50 c 1.27,4 2.67,4.74 2.39,6 z"
           id="path3" />
        <path
           d="m 27.83,18.24 h 0.46 a 2.33,2.33 0 0 1 2.33,2.33 v 5.77 a 2.56,2.56 0 0 1 -2.56,2.56 v 0 A 2.56,2.56 0 0 1 25.5,26.34 v -5.77 a 2.33,2.33 0 0 1 2.33,-2.33 z"
           id="path4" />
        <path
           d="m 17.71,18.24 h 0.46 a 2.33,2.33 0 0 1 2.33,2.33 v 5.77 a 2.56,2.56 0 0 1 -2.56,2.56 v 0 a 2.56,2.56 0 0 1 -2.56,-2.56 v -5.77 a 2.33,2.33 0 0 1 2.33,-2.33 z"
           id="path5" />
        <ellipse
           cx="23.15"
           cy="37.290001"
           rx="3.6099999"
           ry="5.7600002"
           id="ellipse5" />
        <path
           class="cls-3"
           d="m 38.22,42.79 a 4.22,4.22 0 0 1 3.17,-3.32 3.19,3.19 0 0 1 2.93,0.87 c 0.43,0.52 0.45,1.08 0.43,3.27 0,0.9 0,2.09 0,3.51"
           id="path6" />
        <path
           class="cls-3"
           d="m 47.7,47.18 c 0,-1.43 0,-2.64 0,-3.54 0,-2.45 0,-3.8 -1.1,-5.2 a 6.17,6.17 0 0 0 -5.75,-1.93 v 0 a 7.19,7.19 0 0 0 -5.56,5.57 3,3 0 0 0 5.83,1.41 1.71,1.71 0 0 1 0.61,-1 c 0,0.36 0,0.77 0,1.09 0,0.89 0,2.07 0,3.48 0,0 0.07,3.85 3.39,3.85"
           id="path7" />
        <path
           class="cls-4"
           d="m 33.23,8.34 v 0 a 10.85,10.85 0 0 1 10.85,10.85"
           id="path8" />
      </g>
      <g
         id="Line">
        <path
           class="cls-5"
           d="m 12.88,46.37 c -1.92,-0.91 -2,-3.56 -2,-3.56 0,-0.7 0,-1.35 0,-1.93 0,-0.58 0,-1.11 0,-1.55 0,-0.44 0,-0.73 0,-1.08 a 1.61,1.61 0 0 0 -0.62,1 3.17,3.17 0 0 1 -0.41,1 A 3,3 0 0 1 4.43,37.88 7.2,7.2 0 0 1 10,32.31 v 0 a 6.63,6.63 0 0 1 2,0 c 0,1.07 -0.07,2.08 -0.1,3 a 54,54 0 0 0 0,6.37 7,7 0 0 0 0.3,1.64 22.26,22.26 0 0 0 0.68,3.05 z"
           id="path9" />
        <path
           class="cls-5"
           d="m 59.38,49.57 a 16.82,16.82 0 0 1 -6.72,6.6 l 0.06,-0.21 c 0.27,-1.22 -1.12,-2 -2.39,-6 a 22.88,22.88 0 0 1 -0.63,-2.46 22.51,22.51 0 0 0 8.17,-0.09 1.44,1.44 0 0 1 1.51,2.16 z"
           id="path10" />
        <path
           class="cls-5"
           d="m 52.72,56 -0.06,0.21 C 50.9,61 25.4,65.41 15.88,52.8 a 17.87,17.87 0 0 1 -3,-6.43 22.26,22.26 0 0 1 -0.53,-3.11 7,7 0 0 1 -0.3,-1.64 54,54 0 0 1 0,-6.37 c 0,-0.94 0.07,-2 0.1,-3 0.11,-3.15 0.23,-6.81 0.23,-10.82 a 18.43,18.43 0 0 1 36.86,0 V 43.26 A 25.05,25.05 0 0 0 50.33,50 c 1.27,4 2.67,4.74 2.39,6 z"
           id="path11" />
        <path
           class="cls-6"
           d="m 27.83,18.24 h 0.46 a 2.33,2.33 0 0 1 2.33,2.33 v 5.77 a 2.56,2.56 0 0 1 -2.56,2.56 v 0 A 2.56,2.56 0 0 1 25.5,26.34 v -5.77 a 2.33,2.33 0 0 1 2.33,-2.33 z"
           id="path12" />
        <path
           class="cls-6"
           d="m 17.71,18.24 h 0.46 a 2.33,2.33 0 0 1 2.33,2.33 v 5.77 a 2.56,2.56 0 0 1 -2.56,2.56 v 0 a 2.56,2.56 0 0 1 -2.56,-2.56 v -5.77 a 2.33,2.33 0 0 1 2.33,-2.33 z"
           id="path13" />
        <ellipse
           class="cls-6"
           cx="23.15"
           cy="37.290001"
           rx="3.6099999"
           ry="5.7600002"
           id="ellipse13" />
        <path
           class="cls-7"
           d="m 38.22,42.79 a 4.22,4.22 0 0 1 3.17,-3.32 3.19,3.19 0 0 1 2.93,0.87 c 0.43,0.52 0.45,1.08 0.43,3.27 0,0.9 0,2.09 0,3.51"
           id="path14" />
        <path
           class="cls-7"
           d="m 47.7,47.18 c 0,-1.43 0,-2.64 0,-3.54 0,-2.45 0,-3.8 -1.1,-5.2 a 6.17,6.17 0 0 0 -5.75,-1.93 v 0 a 7.19,7.19 0 0 0 -5.56,5.57 3,3 0 0 0 5.83,1.41 1.71,1.71 0 0 1 0.61,-1 c 0,0.36 0,0.77 0,1.09 0,0.89 0,2.07 0,3.48 0,0 0.07,3.85 3.39,3.85"
           id="path15" />
        <line
           class="cls-8"
           x1="44.080002"
           y1="26.860001"
           x2="44.080002"
           y2="32.060001"
           id="line15" />
        <path
           class="cls-8"
           d="m 33.23,8.34 v 0 a 10.85,10.85 0 0 1 10.85,10.85"
           id="path16" />
      </g>
      <g
         id="Shadow"
         class="cls-9">
        <path
           d="M 57.87,47.46 A 22.51,22.51 0 0 1 49.7,47.55 23,23 0 0 1 49.21,43.26 V 21.41 A 18.39,18.39 0 0 0 24.55,4.08 18.39,18.39 0 0 1 36.75,21.41 v 21.85 a 23,23 0 0 0 0.49,4.29 q 2.1,6.31 4.19,12.63 c -1.25,0.31 -2.49,0.58 -3.73,0.81 7.57,-0.22 14.1,-2.48 15,-4.82 a 16.82,16.82 0 0 0 6.72,-6.6 1.44,1.44 0 0 0 -1.55,-2.11 z"
           id="path17" />
      </g>
      <g
         id="Highligth">
        <path
           class="cls-10"
           d="M 42.5,60.57 A 23.46,23.46 0 0 1 28.18,50.14 C 24.61,44.58 23.09,37.89 22.85,31.28 22.61,24.67 23.57,18.08 24.61,11.55 a 33.58,33.58 0 0 1 2,-8 v 0 A 18.41,18.41 0 0 0 12.35,21.41 c 0,4 -0.12,7.67 -0.23,10.82 a 6.63,6.63 0 0 0 -2,0 v 0 a 7.2,7.2 0 0 0 -5.57,5.57 3,3 0 0 0 5.42,2.37 3.17,3.17 0 0 0 0.41,-1 1.61,1.61 0 0 1 0.62,-1 c 0,0.35 0,0.76 0,1.08 0,0.32 0,1 0,1.55 0,0.55 0,1.23 0,1.93 0,0 0.05,2.65 2,3.56 a 17.87,17.87 0 0 0 3,6.43 c 5.77,7.89 17.78,9.15 26.5,7.85 z"
           id="path18" />
      </g>
    </g>
  </g>
  <metadata
     id="metadata18">
    <rdf:RDF>
      <cc:Work
         rdf:about="">
        <dc:title>Icon Color</dc:title>
      </cc:Work>
    </rdf:RDF>
  </metadata>
</svg>
