<?xml version="1.0" encoding="UTF-8" standalone="no"?>
<svg
   viewBox="0 0 64 64"
   version="1.1"
   id="svg18"
   sodipodi:docname="pumpkin.svg"
   inkscape:export-filename="reshot-icon-jack-o-lantern-HRN9K4QSMF.png"
   inkscape:export-xdpi="36"
   inkscape:export-ydpi="36"
   inkscape:version="1.3 (0e150ed6c4, 2023-07-21)"
   xmlns:inkscape="http://www.inkscape.org/namespaces/inkscape"
   xmlns:sodipodi="http://sodipodi.sourceforge.net/DTD/sodipodi-0.dtd"
   xmlns="http://www.w3.org/2000/svg"
   xmlns:svg="http://www.w3.org/2000/svg">
  <defs
     id="defs18" />
  <sodipodi:namedview
     id="namedview18"
     pagecolor="#505050"
     bordercolor="#ffffff"
     borderopacity="1"
     inkscape:showpageshadow="0"
     inkscape:pageopacity="0"
     inkscape:pagecheckerboard="1"
     inkscape:deskcolor="#505050"
     inkscape:zoom="18.453125"
     inkscape:cx="31.972904"
     inkscape:cy="32"
     inkscape:window-width="2560"
     inkscape:window-height="1377"
     inkscape:window-x="-8"
     inkscape:window-y="-8"
     inkscape:window-maximized="1"
     inkscape:current-layer="svg18" />
  <g
     id="_24-Jack_O_Lantern"
     data-name="24-Jack O Lantern">
    <path
       d="M32,45a25.5,25.5,0,0,1,9.22,1.67A17.453,17.453,0,0,1,32,49a17.453,17.453,0,0,1-9.22-2.33A25.5,25.5,0,0,1,32,45Z"
       style="fill:#9f72fc"
       id="path1" />
    <path
       d="M32,45a25.5,25.5,0,0,0-9.22,1.67h-.01A15.277,15.277,0,0,1,16,37s4,5,16,5,16-5,16-5a15.277,15.277,0,0,1-6.77,9.67h-.01A25.5,25.5,0,0,0,32,45Z"
       style="fill:#45409e"
       id="path2" />
    <path
       d="M44,27l-.78,6.25A2.007,2.007,0,0,1,41.23,35H34Z"
       style="fill:#9f72fc"
       id="path3" />
    <path
       d="M30,35H22.77a2.007,2.007,0,0,1-1.99-1.75L20,27Z"
       style="fill:#9f72fc"
       id="path4" />
    <path
       d="M35,14a8.416,8.416,0,0,0,2.66,4.77,6.878,6.878,0,0,0-2.56,2.1C34.2,19.05,33.13,18,32,18s-2.19,1.05-3.1,2.87a6.878,6.878,0,0,0-2.56-2.1A8.416,8.416,0,0,0,29,14c1-4-1-6-1-6s0-2,4-2,4,2,4,2S34,10,35,14Z"
       style="fill:#cdf55f"
       id="path5" />
    <path
       d="M36.5,17.486a6.674,6.674,0,0,0-1.4,1.384C34.2,17.05,33.13,16,32,16s-2.19,1.05-3.1,2.87a6.674,6.674,0,0,0-1.4-1.384A5.749,5.749,0,0,1,26.34,18.77a6.878,6.878,0,0,1,2.56,2.1C29.81,19.05,30.87,18,32,18s2.2,1.05,3.1,2.87a6.878,6.878,0,0,1,2.56-2.1A5.749,5.749,0,0,1,36.5,17.486Z"
       style="fill:#a7e340"
       id="path6" />
    <path
       d="M17.96,20.82A26.82,26.82,0,0,0,11,38c0,9.39,7.03,20,12,20C18.03,58,1,52,1,38c0-9.39,5.03-19,10-19C12.84,19,16.51,19.05,17.96,20.82Z"
       style="fill:#ffb13b"
       id="path7" />
    <path
       d="M14.96,20.82A26.82,26.82,0,0,0,8,38c0,7.208,4.142,15.128,8.315,18.423A21.016,21.016,0,0,0,23,58c-4.97,0-12-10.61-12-20a26.82,26.82,0,0,1,6.96-17.18C16.51,19.05,12.84,19,11,19a3.965,3.965,0,0,0-.707.084C12.036,19.229,13.991,19.637,14.96,20.82Z"
       style="fill:#ff9500"
       id="path8" />
    <path
       d="M53,19c4.97,0,10,9.61,10,19,0,14-17.03,20-22,20,4.97,0,12-10.61,12-20a26.82,26.82,0,0,0-6.96-17.18C47.49,19.05,51.16,19,53,19Z"
       style="fill:#ffb13b"
       id="path9" />
    <path
       d="M56,38a26.82,26.82,0,0,0-6.96-17.18c.969-1.183,2.924-1.591,4.667-1.736A3.965,3.965,0,0,0,53,19c-1.84,0-5.51.05-6.96,1.82A26.82,26.82,0,0,1,53,38c0,9.39-7.03,20-12,20a21.016,21.016,0,0,0,6.685-1.577C51.858,53.128,56,45.208,56,38Z"
       style="fill:#ff9500"
       id="path10" />
    <path
       d="M28.9,20.87C29.81,19.05,30.87,18,32,18s2.2,1.05,3.1,2.87a6.878,6.878,0,0,1,2.56-2.1A7.66,7.66,0,0,1,41,18c1.57,0,3.35,1.06,5.04,2.82A26.82,26.82,0,0,1,53,38c0,9.39-7.03,20-12,20a7.355,7.355,0,0,1-5.9-2.87C34.2,56.95,33.13,58,32,58s-2.2-1.05-3.1-2.87A7.355,7.355,0,0,1,23,58c-4.97,0-12-10.61-12-20a26.82,26.82,0,0,1,6.96-17.18C19.65,19.06,21.43,18,23,18a7.66,7.66,0,0,1,3.34.77A6.878,6.878,0,0,1,28.9,20.87Zm12.33,25.8A15.277,15.277,0,0,0,48,37s-4,5-16,5-16-5-16-5a15.277,15.277,0,0,0,6.77,9.67h.01A17.453,17.453,0,0,0,32,49a17.453,17.453,0,0,0,9.22-2.33Zm1.99-13.42L44,27,34,35h7.23A2.007,2.007,0,0,0,43.22,33.25ZM22.77,35H30L20,27l.78,6.25A2.007,2.007,0,0,0,22.77,35Z"
       style="fill:#f5cd62"
       id="path11" />
    <path
       d="M17.96,23.82C19.65,22.06,21.43,21,23,21a7.66,7.66,0,0,1,3.34.77,6.878,6.878,0,0,1,2.56,2.1C29.81,22.05,30.87,21,32,21s2.2,1.05,3.1,2.87a6.878,6.878,0,0,1,2.56-2.1A7.66,7.66,0,0,1,41,21c1.57,0,3.35,1.06,5.04,2.82a27.106,27.106,0,0,1,6.9,15.7C52.976,39.008,53,38.5,53,38a26.82,26.82,0,0,0-6.96-17.18C44.35,19.06,42.57,18,41,18a7.66,7.66,0,0,0-3.34.77,6.878,6.878,0,0,0-2.56,2.1C34.2,19.05,33.13,18,32,18s-2.19,1.05-3.1,2.87a6.878,6.878,0,0,0-2.56-2.1A7.66,7.66,0,0,0,23,18c-1.57,0-3.35,1.06-5.04,2.82A26.82,26.82,0,0,0,11,38c0,.5.024,1.008.063,1.515A27.106,27.106,0,0,1,17.96,23.82Z"
       style="fill:#f2d48f"
       id="path12" />
    <path
       d="M22.77,49.67h.01A17.453,17.453,0,0,0,32,52a17.453,17.453,0,0,0,9.22-2.33h.01A15.277,15.277,0,0,0,48,40a8.721,8.721,0,0,1-1.749,1.478A14.54,14.54,0,0,1,41.23,46.67h-.01A17.453,17.453,0,0,1,32,49a17.453,17.453,0,0,1-9.22-2.33h-.01a14.54,14.54,0,0,1-5.021-5.192A8.721,8.721,0,0,1,16,40,15.277,15.277,0,0,0,22.77,49.67Z"
       style="fill:#ffb13b"
       id="path13" />
    <path
       d="M41,55a7.355,7.355,0,0,1-5.9-2.87C34.2,53.95,33.13,55,32,55s-2.2-1.05-3.1-2.87A7.355,7.355,0,0,1,23,55C18.3,55,11.75,45.5,11.063,36.515c-.037.5-.063.993-.063,1.485,0,9.39,7.03,20,12,20a7.355,7.355,0,0,0,5.9-2.87C29.8,56.95,30.87,58,32,58s2.2-1.05,3.1-2.87A7.355,7.355,0,0,0,41,58c4.97,0,12-10.61,12-20,0-.492-.026-.988-.063-1.485C52.25,45.5,45.7,55,41,55Z"
       style="fill:#ffb13b"
       id="path14" />
    <path
       d="M53,18c-1.556,0-4.916,0-6.942,1.451A7.893,7.893,0,0,0,41,17a8.671,8.671,0,0,0-3.144.592,8.449,8.449,0,0,1-1.886-3.834c-.836-3.347.68-4.991.737-5.051A1,1,0,0,0,37,8c0-.122-.057-3-5-3s-5,2.878-5,3a1.026,1.026,0,0,0,.284.7c.066.069,1.582,1.713.746,5.06a8.479,8.479,0,0,1-1.884,3.835A8.687,8.687,0,0,0,23,17a7.893,7.893,0,0,0-5.058,2.451C15.916,18,12.556,18,11,18,5.448,18,0,27.906,0,38,0,52.682,17.456,59,23,59a8.432,8.432,0,0,0,5.729-2.2C29.694,58.234,30.793,59,32,59s2.306-.766,3.271-2.2A8.432,8.432,0,0,0,41,59c5.544,0,23-6.318,23-21C64,27.906,58.552,18,53,18ZM29.97,14.242A7.759,7.759,0,0,0,29.114,7.8C29.391,7.439,30.2,7,32,7c1.829,0,2.631.451,2.9.788a7.757,7.757,0,0,0-.866,6.454,10.955,10.955,0,0,0,2.017,4.328,7.724,7.724,0,0,0-.776.632C34.306,17.766,33.207,17,32,17s-2.311.757-3.277,2.2a7.969,7.969,0,0,0-.77-.626A10.955,10.955,0,0,0,29.97,14.242ZM2,38c0-9.525,5.033-18,9-18,1.174,0,4,0,5.537.916A28.432,28.432,0,0,0,10,38a28.3,28.3,0,0,0,7.042,17.648C10.513,53.23,2,47.508,2,38ZM36.268,54.972a21.493,21.493,0,0,0,.976-2.69l-1.918-.564C34.18,55.616,32.817,57,32,57s-2.18-1.384-3.326-5.282l-1.918.564a21.493,21.493,0,0,0,.976,2.69A6.534,6.534,0,0,1,23,57c-4.344,0-11-10.191-11-19s6.656-19,11-19a6.531,6.531,0,0,1,4.731,2.027,25.664,25.664,0,0,0-1.507,4.753l1.951.44C29.3,21.232,30.906,19,32,19c.817,0,2.18,1.384,3.326,5.282l1.918-.564a21.493,21.493,0,0,0-.976-2.69A6.534,6.534,0,0,1,41,19c4.344,0,11,10.191,11,19S45.344,57,41,57A6.534,6.534,0,0,1,36.268,54.972Zm10.69.676A28.3,28.3,0,0,0,54,38a28.432,28.432,0,0,0-6.537-17.084C49,20,51.826,20,53,20c3.967,0,9,8.475,9,18C62,47.508,53.487,53.23,46.958,55.648Z"
       id="path15" />
    <path
       d="M48.412,36.093a1,1,0,0,0-1.188.277C47.186,36.416,43.278,41,32,41s-15.186-4.584-15.219-4.625a1,1,0,0,0-1.767.789C15.035,37.293,17.322,50,32,50S48.965,37.293,48.986,37.164A1,1,0,0,0,48.412,36.093ZM25.429,46.857a25.616,25.616,0,0,1,13.122-.005A17.9,17.9,0,0,1,32,48,17.916,17.916,0,0,1,25.429,46.857ZM44.45,42.4a13.281,13.281,0,0,1-3.36,3.152,27.39,27.39,0,0,0-18.2.006,13.727,13.727,0,0,1-4.916-5.745C20.5,41.3,24.919,43,32,43c7.055,0,11.471-1.686,13.992-3.17A14.824,14.824,0,0,1,44.45,42.4Z"
       id="path16" />
    <path
       d="M22.766,36H30a1,1,0,0,0,.625-1.781l-10-8a1,1,0,0,0-1.617.9l.781,6.248A3,3,0,0,0,22.766,36Zm4.383-2H22.766a1,1,0,0,1-.993-.876L21.3,29.318Z"
       id="path17" />
    <path
       d="M34,36h7.234a3,3,0,0,0,2.977-2.628l.781-6.248a1,1,0,0,0-1.617-.9l-10,8A1,1,0,0,0,34,36Zm8.7-6.682-.475,3.806a1,1,0,0,1-.993.876H36.851Z"
       id="path18" />
  </g>
</svg>
