<?xml version="1.0" encoding="UTF-8"?>
<svg id="features" xmlns="http://www.w3.org/2000/svg" version="1.1" viewBox="0 0 1024 1024">
  <!-- Generator: Adobe Illustrator 29.5.1, SVG Export Plug-In . SVG Version: 2.1.0 Build 141)  -->
  <defs>
    <style>
      .st0, .st1 {
        opacity: .5;
      }

      .st0, .st2 {
        fill: #934909;
      }
    </style>
  </defs>
  <g class="st1">
    <path class="st2" d="M551.66,797.26h-79.02c-5.5,0-9.95,4.45-9.95,9.95s4.45,9.95,9.95,9.95h79.02c5.5,0,9.95-4.45,9.95-9.95s-4.45-9.95-9.95-9.95Z"/>
  </g>
  <path class="st0" d="M472.64,339.97h79.43c5.5,0,9.95-4.45,9.95-9.95s-4.45-9.95-9.95-9.95h-79.43c-5.5,0-9.95,4.45-9.95,9.95s4.45,9.95,9.95,9.95Z"/>
  <g class="st1">
    <path class="st2" d="M352.93,470.71c0,8.24,6.68,14.92,14.92,14.92s14.92-6.68,14.92-14.92-6.68-14.92-14.92-14.92-14.92,6.68-14.92,14.92Z"/>
    <path class="st2" d="M327,523.1c0-8.24-6.68-14.92-14.92-14.92s-14.92,6.68-14.92,14.92,6.68,14.92,14.92,14.92,14.92-6.68,14.92-14.92Z"/>
    <path class="st2" d="M256.31,455.79c-8.24,0-14.92,6.68-14.92,14.92s6.68,14.92,14.92,14.92,14.92-6.68,14.92-14.92-6.68-14.92-14.92-14.92Z"/>
    <path class="st2" d="M769.91,455.79c-8.24,0-14.92,6.68-14.92,14.92s6.68,14.92,14.92,14.92,14.92-6.68,14.92-14.92-6.68-14.92-14.92-14.92Z"/>
    <path class="st2" d="M714.14,508.18c-8.24,0-14.92,6.68-14.92,14.92s6.68,14.92,14.92,14.92,14.92-6.68,14.92-14.92-6.68-14.92-14.92-14.92Z"/>
    <circle class="st2" cx="658.37" cy="470.71" r="14.92" transform="translate(125.08 1079.49) rotate(-84.35)"/>
  </g>
  <path class="st2" d="M706.45,578.59c-47.44-.03-87.15-5.71-118.05-16.9-22.24-8.05-39.48-18.74-51.24-31.77-2.69-2.99-4.99-6.28-6.85-9.8-3.72-7.02-5.49-14.92-5.49-22.87v-29.91h-25.55v30.04c0,6.78-1.26,13.53-4.02,19.72-2.08,4.67-4.87,9-8.32,12.82-11.76,13.03-28.99,23.72-51.24,31.77-30.9,11.19-70.62,16.87-118.05,16.9-6.68,0-12.43,5.14-12.76,11.81-.35,7.15,5.35,13.05,12.42,13.05,61.93,0,144.45-9.72,187.15-55.85h0c4.2-4.18,10.99-4.18,15.2,0h0c42.7,46.13,125.21,55.85,187.15,55.85,7.07,0,12.77-5.91,12.42-13.05-.32-6.67-6.08-11.81-12.76-11.81Z"/>
</svg>