<?xml version="1.0" encoding="UTF-8"?>
<svg id="tongue" xmlns="http://www.w3.org/2000/svg" version="1.1" viewBox="0 0 1024 1024">
  <!-- Generator: Adobe Illustrator 29.5.1, SVG Export Plug-In . SVG Version: 2.1.0 Build 141)  -->
  <defs>
    <style>
      .st0 {
        fill: #e62e38;
      }
    </style>
  </defs>
  <path class="st0" d="M579.99,593.37s-.07,0-.1-.01c-12.76-4.09-33.37-16.83-47.97-31.89-5.17-5.33-9.59-10.95-12.63-16.59v121.28c0,4.12-3.34,7.45-7.45,7.45h0c-4.12,0-7.45-3.34-7.45-7.45v-121.28c-3.04,5.63-7.46,11.25-12.63,16.59-14.6,15.06-35.22,27.8-47.97,31.89-.03.01-.07,0-.1.01-6.02,1.93-10.14,7.49-10.14,13.81v69.64c0,43.1,34.42,78.87,77.52,79.29,43.53.43,79.08-34.86,79.08-78.3v-70.63c0-6.32-4.12-11.89-10.14-13.81h-.02,0Z"/>
</svg>